<svg xmlns="http://www.w3.org/2000/svg" version="1.1" xmlns:xlink="http://www.w3.org/1999/xlink" xmlns:svgjs="http://svgjs.dev/svgjs" width="1500" height="1500" viewBox="0 0 1500 1500"><rect width="1500" height="1500" fill="#ffffff"></rect><g transform="matrix(0.6666666666666666,0,0,0.6666666666666666,249.39393939393938,435.9903225806451)"><svg viewBox="0 0 396 248" data-background-color="#1d366f" preserveAspectRatio="xMidYMid meet" height="939" width="1500" xmlns="http://www.w3.org/2000/svg" xmlns:xlink="http://www.w3.org/1999/xlink"><g id="tight-bounds" transform="matrix(1,0,0,1,0.2400000000000091,0.4000000000000057)"><svg viewBox="0 0 395.52 247.2" height="247.2" width="395.52"><g><svg></svg></g><g><svg viewBox="0 0 395.52 247.2" height="247.2" width="395.52"><g transform="matrix(1,0,0,1,75.54432,93.58635792871264)"><svg viewBox="0 0 244.43135999999998 60.02728414257471" height="60.02728414257471" width="244.43135999999998"><g><svg viewBox="0 0 343.0758372468615 84.2523265626353" height="60.02728414257471" width="244.43135999999998"><g transform="matrix(1,0,0,1,98.64447724686156,11.644134857788242)"><svg viewBox="0 0 244.43135999999998 60.96405684705882" height="60.96405684705882" width="244.43135999999998"><g id="textblocktransform"><svg viewBox="0 0 244.43135999999998 60.96405684705882" height="60.96405684705882" width="244.43135999999998" id="textblock"><g><svg viewBox="0 0 244.43135999999998 60.96405684705882" height="60.96405684705882" width="244.43135999999998"><g transform="matrix(1,0,0,1,0,0)"><svg width="244.43135999999998" viewBox="3.33 -33.33 173.73999999999998 44.16" height="60.96405684705882" data-palette-color="#08c076"><g class="wordmark-text-0" data-fill-palette-color="primary" id="text-0"><path d="M21.67 0L16.91 0 7.5-11.46 15.24-20.83 19.58-20.83 11.98-11.74 21.67 0ZM7.08 0L3.33 0 3.33-33.33 7.08-33.33 7.08 0ZM28.96 0L25.21 0 25.21-20.83 28.96-20.83 28.96 0ZM27.08-24.58L27.08-24.58Q26.04-24.58 25.31-25.31 24.58-26.04 24.58-27.08L24.58-27.08Q24.58-28.16 25.31-28.87 26.04-29.58 27.08-29.58L27.08-29.58Q28.16-29.58 28.87-28.87 29.58-28.16 29.58-27.08L29.58-27.08Q29.58-26.04 28.87-25.31 28.16-24.58 27.08-24.58ZM39.37 0L35.62 0 35.62-20.83 39.09-20.83 39.09-17.47Q40.24-19.31 42.06-20.28 43.88-21.25 46-21.25L46-21.25Q48.22-21.25 50.12-20.16 52.01-19.06 53.19-17 54.37-14.93 54.37-11.98L54.37-11.98 54.37 0 50.62 0 50.62-11.46Q50.62-13.92 49.14-15.82 47.67-17.71 45-17.71L45-17.71Q42.81-17.71 41.09-16.13 39.37-14.55 39.37-11.56L39.37-11.56 39.37 0ZM69.54 0.28L69.54 0.28Q66.69 0.28 64.33-1.16 61.97-2.6 60.57-5.03 59.16-7.47 59.16-10.42L59.16-10.42Q59.16-13.37 60.57-15.8 61.97-18.23 64.33-19.67 66.69-21.11 69.54-21.11L69.54-21.11Q71.69-21.11 73.59-20.31 75.48-19.51 76.87-18.09L76.87-18.09 76.87-20.83 80.34-20.83 80.34 0 76.87 0 76.87-2.74Q75.48-1.35 73.59-0.54 71.69 0.28 69.54 0.28ZM70.03-3.13L70.03-3.13Q72.01-3.13 73.62-4.11 75.24-5.1 76.19-6.75 77.15-8.4 77.15-10.42L77.15-10.42Q77.15-12.43 76.19-14.08 75.24-15.73 73.62-16.72 72.01-17.71 70.03-17.71L70.03-17.71Q68.05-17.71 66.43-16.72 64.82-15.73 63.86-14.08 62.91-12.43 62.91-10.42L62.91-10.42Q62.91-8.4 63.86-6.75 64.82-5.1 66.43-4.11 68.05-3.13 70.03-3.13Z" fill="#000000" data-fill-palette-color="primary"></path><path d="M91.83 10.83L91.83 10.83 91.07 7.6Q92.35 7.6 93.22 6.88 94.09 6.15 94.09 4.24L94.09 4.24 94.09-20.83 97.84-20.83 97.84 4.31Q97.84 7.43 96.12 9.13 94.4 10.83 91.83 10.83ZM95.96-24.58L95.96-24.58Q94.92-24.58 94.19-25.31 93.46-26.04 93.46-27.08L93.46-27.08Q93.46-28.16 94.19-28.87 94.92-29.58 95.96-29.58L95.96-29.58Q97.04-29.58 97.75-28.87 98.46-28.16 98.46-27.08L98.46-27.08Q98.46-26.04 97.75-25.31 97.04-24.58 95.96-24.58ZM114.02 0.42L114.02 0.42Q110.99 0.42 108.49-1.04 105.99-2.5 104.52-4.97 103.04-7.43 103.04-10.42L103.04-10.42Q103.04-13.44 104.52-15.89 105.99-18.33 108.49-19.79 110.99-21.25 114.02-21.25L114.02-21.25Q117.07-21.25 119.55-19.79 122.04-18.33 123.51-15.89 124.99-13.44 124.99-10.42L124.99-10.42Q124.99-7.43 123.51-4.97 122.04-2.5 119.55-1.04 117.07 0.42 114.02 0.42ZM114.02-3.13L114.02-3.13Q116.03-3.13 117.66-4.11 119.29-5.1 120.27-6.75 121.24-8.4 121.24-10.42L121.24-10.42Q121.24-12.43 120.27-14.08 119.29-15.73 117.66-16.72 116.03-17.71 114.02-17.71L114.02-17.71Q112-17.71 110.37-16.72 108.74-15.73 107.77-14.08 106.79-12.43 106.79-10.42L106.79-10.42Q106.79-8.4 107.77-6.75 108.74-5.1 110.37-4.11 112-3.13 114.02-3.13ZM139.12 0.28L139.12 0.28Q136.27 0.28 133.91-1.16 131.55-2.6 130.14-5.03 128.74-7.47 128.74-10.42L128.74-10.42Q128.74-13.37 130.14-15.8 131.55-18.23 133.91-19.67 136.27-21.11 139.12-21.11L139.12-21.11Q141.27-21.11 143.16-20.31 145.05-19.51 146.44-18.09L146.44-18.09 146.44-20.83 149.92-20.83 149.92 0 146.44 0 146.44-2.74Q145.05-1.35 143.16-0.54 141.27 0.28 139.12 0.28ZM139.6-3.13L139.6-3.13Q141.58-3.13 143.2-4.11 144.81-5.1 145.77-6.75 146.72-8.4 146.72-10.42L146.72-10.42Q146.72-12.43 145.77-14.08 144.81-15.73 143.2-16.72 141.58-17.71 139.6-17.71L139.6-17.71Q137.62-17.71 136.01-16.72 134.4-15.73 133.44-14.08 132.49-12.43 132.49-10.42L132.49-10.42Q132.49-8.4 133.44-6.75 134.4-5.1 136.01-4.11 137.62-3.13 139.6-3.13ZM133.35-23.72L133.35-23.72 132.24-26.88Q132.94-28.26 134.01-28.98 135.09-29.69 136.48-29.69L136.48-29.69Q137.66-29.69 138.72-29.22 139.78-28.75 140.8-28.28 141.83-27.81 142.8-27.81L142.8-27.81Q143.98-27.81 144.79-28.51 145.61-29.2 146.13-30.45L146.13-30.45 147.24-27.29Q146.55-25.9 145.47-25.19 144.4-24.48 143.01-24.48L143.01-24.48Q141.86-24.48 140.78-24.95 139.71-25.42 138.7-25.89 137.69-26.35 136.69-26.35L136.69-26.35Q135.51-26.35 134.69-25.66 133.87-24.97 133.35-23.72ZM166.09 0.42L166.09 0.42Q163.07 0.42 160.57-1.04 158.07-2.5 156.6-4.97 155.12-7.43 155.12-10.42L155.12-10.42Q155.12-13.44 156.6-15.89 158.07-18.33 160.57-19.79 163.07-21.25 166.09-21.25L166.09-21.25Q169.15-21.25 171.63-19.79 174.11-18.33 175.59-15.89 177.07-13.44 177.07-10.42L177.07-10.42Q177.07-7.43 175.59-4.97 174.11-2.5 171.63-1.04 169.15 0.42 166.09 0.42ZM166.09-3.13L166.09-3.13Q168.11-3.13 169.74-4.11 171.37-5.1 172.34-6.75 173.32-8.4 173.32-10.42L173.32-10.42Q173.32-12.43 172.34-14.08 171.37-15.73 169.74-16.72 168.11-17.71 166.09-17.71L166.09-17.71Q164.08-17.71 162.45-16.72 160.82-15.73 159.84-14.08 158.87-12.43 158.87-10.42L158.87-10.42Q158.87-8.4 159.84-6.75 160.82-5.1 162.45-4.11 164.08-3.13 166.09-3.13Z" fill="#000000" data-fill-palette-color="tertiary"></path></g></svg></g></svg></g></svg></g></svg></g><g><svg viewBox="0 0 84.2523265626353 84.2523265626353" height="84.2523265626353" width="84.2523265626353"><g><svg xmlns="http://www.w3.org/2000/svg" viewBox="0 0 48 48" x="0" y="0" height="84.2523265626353" width="84.2523265626353" class="icon-icon-0" data-fill-palette-color="accent" id="icon-0"><path d="M24 5A19 19 0 1 0 43 24 19 19 0 0 0 24 5M26.3 25.53L27.93 29.61A1 1 0 0 1 27.37 30.91 1 1 0 0 1 27 31 1 1 0 0 1 26.07 30.37L24.44 26.29A2.13 2.13 0 0 0 22.44 25H22V30A1 1 0 0 1 20 30V18A1 1 0 0 1 22 18V22.9A5 5 0 0 0 26 18 1 1 0 0 1 28 18 7 7 0 0 1 24.92 23.8 4 4 0 0 1 26.3 25.53" fill="#000000" data-fill-palette-color="accent"></path><path d="M24 48A24 24 0 1 1 48 24 24 24 0 0 1 24 48M24 2A22 22 0 1 0 46 24 22 22 0 0 0 24 2" fill="#000000" data-fill-palette-color="accent"></path></svg></g></svg></g></svg></g></svg></g><g><path d="M0 123.6c0-68.262 55.338-123.6 123.6-123.6 56.055 0 103.394 37.315 118.533 88.459l-2.044 0c-15.077-50.048-61.526-86.501-116.489-86.5-67.181 0-121.641 54.461-121.642 121.641 0 67.181 54.461 121.641 121.642 121.641 54.963 0 101.412-36.453 116.489-86.5h2.044c-15.139 51.145-62.478 88.459-118.533 88.459-68.262 0-123.6-55.338-123.6-123.6z" fill="#000000" stroke="transparent" data-fill-palette-color="tertiary"></path></g></svg></g><defs></defs></svg><rect width="395.52" height="247.2" fill="none" stroke="none" visibility="hidden"></rect></g></svg></g></svg>